<svg xmlns="http://www.w3.org/2000/svg" width="75" height="75" viewBox="0 0 75 75">
  <g id="Circular" transform="translate(19736 -3664)">
    <rect id="Rectangle_148867" data-name="Rectangle 148867" width="75" height="75" transform="translate(-19736 3664)" fill="none"/>
    <g id="exam_6_" data-name="exam (6)" transform="translate(-19735.037 3665)">
      <g id="Group_162874" data-name="Group 162874" transform="translate(0 0)">
        <path id="Path_74502" data-name="Path 74502" d="M161.434,62.87h18.939a1.435,1.435,0,1,0,0-2.87H161.434a1.435,1.435,0,1,0,0,2.87Z" transform="translate(-137.231 -41.575)" fill="rgba(252,79,25,0.99)"/>
        <path id="Path_74503" data-name="Path 74503" d="M218.914,101.334H206.431a1.435,1.435,0,0,0,0,2.87h12.483a1.435,1.435,0,0,0,0-2.87Z" transform="translate(-175.798 -77.014)" fill="rgba(252,79,25,0.99)"/>
        <path id="Path_74505" data-name="Path 74505" d="M180.373,142.668H161.434a1.435,1.435,0,0,0,0,2.87h18.939a1.435,1.435,0,0,0,0-2.87Z" transform="translate(-137.231 -112.453)" fill="rgba(252,79,25,0.99)"/>
        <path id="Path_74506" data-name="Path 74506" d="M161.431,104.2a1.435,1.435,0,1,0,0-2.87h0a1.435,1.435,0,0,0,0,2.87Z" transform="translate(-137.178 -77.014)" fill="rgba(252,79,25,0.99)"/>
        <path id="Path_74510" data-name="Path 74510" d="M57.346,41.654c-.481,0-.957.023-1.427.065V7.133a7.093,7.093,0,0,0-2.114-5.066A7.04,7.04,0,0,0,48.82,0H7.133A7.141,7.141,0,0,0,0,7.133V9.986a1.426,1.426,0,0,0,1.427,1.427h9.986v48.6a7.141,7.141,0,0,0,7.133,7.132H45.1A15.688,15.688,0,1,0,57.346,41.654ZM11.412,8.559H2.853V7.133a4.284,4.284,0,0,1,4.279-4.28h0a4.285,4.285,0,0,1,4.277,4.28ZM22.824,60.008a4.28,4.28,0,0,1-8.559,0V7.133a7.1,7.1,0,0,0-1.43-4.28H48.779a4.283,4.283,0,0,1,4.287,4.28V42.247a15.763,15.763,0,0,0-9.533,7.66,1.423,1.423,0,0,0-.452-.074H24.25a1.426,1.426,0,1,0,0,2.853H42.36a15.581,15.581,0,0,0-.624,3.043H24.25a1.427,1.427,0,0,0-1.427,1.427Zm1.423,4.279a7.1,7.1,0,0,0,1.43-4.279V58.582H41.7a15.573,15.573,0,0,0,1.573,5.706H24.247Zm33.1,5.9A12.839,12.839,0,1,1,70.184,57.346,12.853,12.853,0,0,1,57.346,70.184Z" transform="translate(0 0)" fill="rgba(252,79,25,0.99)"/>
        <path id="Path_74511" data-name="Path 74511" d="M352.726,348.871a4.309,4.309,0,0,0-6.087,0l-3.96,3.96-.673-.673a4.3,4.3,0,1,0-6.087,6.087l3.716,3.716a4.309,4.309,0,0,0,6.087,0l7-7a4.3,4.3,0,0,0,0-6.087Zm-2.029,4.058-7,7a1.436,1.436,0,0,1-2.029,0l-3.716-3.716a1.434,1.434,0,1,1,2.028-2.029l1.687,1.687a1.435,1.435,0,0,0,2.029,0l4.975-4.975a1.435,1.435,0,0,1,2.029,2.029Z" transform="translate(-287.068 -298.162)" fill="rgba(252,79,25,0.99)"/>
      </g>
    </g>
  </g>
</svg>
