<svg xmlns="http://www.w3.org/2000/svg" width="75" height="75" viewBox="0 0 75 75">
  <g id="Gallery" transform="translate(19247 -3665)">
    <rect id="Rectangle_148871" data-name="Rectangle 148871" width="75" height="75" transform="translate(-19247 3665)" fill="none"/>
    <g id="image-gallery_1_" data-name="image-gallery (1)" transform="translate(-19246.451 3669)">
      <g id="Group_162316" data-name="Group 162316" transform="translate(0 23.432)">
        <path id="Path_73985" data-name="Path 73985" d="M53.537,53.564a6.119,6.119,0,0,1-1.564-.2L4.539,40.659A6.191,6.191,0,0,1,.2,33.143L6.186,10.836a1.534,1.534,0,1,1,2.963.791l-5.982,22.3A3.113,3.113,0,0,0,5.346,37.7L52.761,50.4a3.054,3.054,0,0,0,3.733-2.16l2.4-8.877a1.534,1.534,0,1,1,2.963.8L59.46,49.021a6.127,6.127,0,0,1-5.923,4.543Z" transform="translate(0 -9.701)" fill="rgba(252,79,25,0.99)" stroke="#fc511c" stroke-width="0.1"/>
      </g>
      <g id="Group_162317" data-name="Group 162317" transform="translate(12.269 0)">
        <path id="Path_73986" data-name="Path 73986" d="M59.216,51.081H10.135A6.141,6.141,0,0,1,4,44.946V8.135A6.141,6.141,0,0,1,10.135,2H59.216a6.141,6.141,0,0,1,6.135,6.135V44.946A6.141,6.141,0,0,1,59.216,51.081ZM10.135,5.068A3.073,3.073,0,0,0,7.068,8.135V44.946a3.073,3.073,0,0,0,3.068,3.068H59.216a3.073,3.073,0,0,0,3.068-3.068V8.135a3.073,3.073,0,0,0-3.068-3.068Z" transform="translate(-4 -2)" fill="rgba(252,79,25,0.99)" stroke="#fc511c" stroke-width="0.1"/>
      </g>
      <g id="Group_162318" data-name="Group 162318" transform="translate(21.471 9.203)">
        <path id="Path_73987" data-name="Path 73987" d="M13.135,17.27a6.135,6.135,0,1,1,6.135-6.135A6.141,6.141,0,0,1,13.135,17.27Zm0-9.2A3.068,3.068,0,1,0,16.2,11.135,3.073,3.073,0,0,0,13.135,8.068Z" transform="translate(-7 -5)" fill="rgba(252,79,25,0.99)" stroke="#fc511c" stroke-width="0.1"/>
      </g>
      <g id="Group_162319" data-name="Group 162319" transform="translate(12.483 16.941)">
        <path id="Path_73988" data-name="Path 73988" d="M5.6,36.324a1.532,1.532,0,0,1-1.086-2.617L19.006,19.219a4.715,4.715,0,0,1,6.506,0l4.313,4.313L41.765,9.206a4.609,4.609,0,0,1,3.5-1.656H45.3a4.6,4.6,0,0,1,3.494,1.6L64.839,27.873a1.534,1.534,0,1,1-2.328,2L46.467,11.151a1.517,1.517,0,0,0-1.166-.534,1.628,1.628,0,0,0-1.178.552L31.108,26.787a1.528,1.528,0,0,1-1.11.549,1.476,1.476,0,0,1-1.153-.448l-5.5-5.5a1.576,1.576,0,0,0-2.169,0L6.687,35.876a1.528,1.528,0,0,1-1.083.448Z" transform="translate(-4.07 -7.55)" fill="rgba(252,79,25,0.99)" stroke="#fc511c" stroke-width="0.1"/>
      </g>
    </g>
  </g>
</svg>
